<svg version="1.1" id="Layer_1" xmlns="http://www.w3.org/2000/svg" xmlns:xlink="http://www.w3.org/1999/xlink" x="0px" y="0px"
	 width="100%" viewBox="0 0 512 512" enable-background="new 0 0 512 512" xml:space="preserve">
<path fill="#000000" opacity="1.000000" stroke="none" 
	d="
M1.000000,168.000000 
	C1.000000,112.362144 1.000000,56.724293 1.000000,1.043220 
	C171.549515,1.043220 342.099030,1.043220 513.000000,1.043220 
	C513.000000,56.020397 513.000000,111.041542 512.700195,166.831604 
	C511.266724,165.703918 510.018982,163.865524 509.017365,161.901596 
	C499.667877,143.569397 490.360657,125.215645 481.035217,106.499649 
	C478.049683,99.758751 475.070160,93.386337 472.553467,87.008224 
	C479.257507,87.002533 485.498810,87.002533 491.841827,87.002533 
	C491.841827,79.175743 491.841827,72.055733 491.766052,64.591774 
	C479.300629,57.547871 466.896179,50.875237 454.526215,44.139206 
	C444.860687,38.875877 435.312775,33.390991 425.563782,28.288950 
	C420.907501,25.852123 415.911652,22.280935 411.059296,22.264458 
	C308.287811,21.915430 205.514908,21.996439 102.742287,22.039793 
	C101.354424,22.040379 99.809036,22.344681 98.602890,22.997889 
	C82.088387,31.941534 65.611107,40.954159 49.145378,49.987545 
	C40.130081,54.933495 31.153746,59.950466 22.094685,65.404106 
	C22.029528,72.753281 22.029528,79.633766 22.029528,86.921822 
	C29.034502,86.921822 35.584061,86.921822 42.353951,87.006432 
	C42.574280,87.091042 43.022614,87.245323 42.841721,87.536118 
	C39.394691,94.525810 36.128551,101.224709 32.564873,108.111801 
	C22.651573,127.570152 13.050457,146.847687 3.370065,166.085327 
	C2.954179,166.911804 1.806683,167.370163 1.000000,168.000000 
z"/>
<path fill="#95A5A6" opacity="1.000000" stroke="none" 
	d="
M1.000000,470.000000 
	C1.000000,469.250000 1.000000,468.500000 1.282093,467.671448 
	C2.301898,466.935425 3.220734,466.398224 3.749407,465.602020 
	C9.213049,457.372681 14.532710,449.046997 20.051294,440.855133 
	C27.910564,429.188721 35.902981,417.612030 43.901009,406.460999 
	C43.963501,420.839233 43.963501,434.753418 43.963501,449.000000 
	C46.726921,449.000000 48.703560,449.000000 50.680199,449.000000 
	C128.789261,449.000000 206.898315,449.002441 285.007385,448.994324 
	C290.001770,448.993805 294.996155,448.911316 300.456848,448.916626 
	C307.611542,448.961426 314.299927,448.956604 321.457336,448.970062 
	C349.954773,448.976135 377.983246,448.963928 406.479248,448.968750 
	C413.967682,448.946503 420.988556,448.907196 428.475922,448.919617 
	C442.503052,448.971283 456.063690,448.971283 470.163422,448.971283 
	C470.163422,434.194641 470.163422,420.095551 470.472900,406.137390 
	C483.800415,425.694946 496.802246,445.122528 509.880737,464.498352 
	C510.592865,465.553375 511.945496,466.176086 513.000000,467.000000 
	C513.000000,467.750000 513.000000,468.500000 512.531372,469.625000 
	C341.708466,470.000000 171.354233,470.000000 1.000000,470.000000 
z"/>
<path fill="#7F8C8D" opacity="1.000000" stroke="none" 
	d="
M1.000000,470.468567 
	C171.354233,470.000000 341.708466,470.000000 512.531372,470.000000 
	C513.000000,477.020966 513.000000,484.041901 512.531372,491.531433 
	C341.708466,492.000000 171.354233,492.000000 1.000000,492.000000 
	C1.000000,484.979034 1.000000,477.958099 1.000000,470.468567 
z"/>
<path fill="#000000" opacity="1.000000" stroke="none" 
	d="
M1.000000,492.468842 
	C171.354233,492.000000 341.708466,492.000000 512.531372,492.000000 
	C513.000000,498.994476 513.000000,505.988922 513.000000,512.960938 
	C342.333344,512.960938 171.666656,512.960938 1.000000,512.960938 
	C1.000000,506.260468 1.000000,499.599091 1.000000,492.468842 
z"/>
<path fill="#000000" opacity="1.000000" stroke="none" 
	d="
M43.838516,405.997009 
	C35.902981,417.612030 27.910564,429.188721 20.051294,440.855133 
	C14.532710,449.046997 9.213049,457.372681 3.749407,465.602020 
	C3.220734,466.398224 2.301898,466.935425 1.282093,467.296448 
	C1.000000,382.979095 1.000000,298.958221 1.360067,214.311401 
	C2.171381,214.490280 2.698060,215.262405 3.062711,216.104675 
	C9.985565,232.095291 27.605820,240.362244 43.951080,234.537796 
	C44.047237,249.338120 44.106541,263.675446 44.093323,278.475616 
	C44.013866,287.575836 44.012260,296.213165 43.999062,304.850525 
	C43.947536,338.566010 43.892342,372.281525 43.838516,405.997009 
z"/>
<path fill="#000000" opacity="1.000000" stroke="none" 
	d="
M513.000000,466.531342 
	C511.945496,466.176086 510.592865,465.553375 509.880737,464.498352 
	C496.802246,445.122528 483.800415,425.694946 470.401428,405.672058 
	C470.013641,394.435638 470.015411,383.805420 469.998413,373.175232 
	C469.947662,341.454376 469.889526,309.733490 469.905762,277.548065 
	C470.005493,262.755920 470.033722,248.428329 470.438904,234.203598 
	C486.370056,239.969009 502.897369,232.129608 509.865051,218.550888 
	C510.563629,217.189514 511.938812,216.175308 513.000000,215.000000 
	C513.000000,298.687561 513.000000,382.375122 513.000000,466.531342 
z"/>
<path fill="#ECF0F1" opacity="1.000000" stroke="none" 
	d="
M481.041199,106.868134 
	C490.360657,125.215645 499.667877,143.569397 509.017365,161.901596 
	C510.018982,163.865524 511.266724,165.703918 512.700195,167.300262 
	C513.000000,168.388885 513.000000,169.777786 512.531372,171.581924 
	C491.107635,171.991318 470.152588,171.985443 449.057861,171.768341 
	C448.657745,171.350967 448.397308,171.144821 448.084778,170.581024 
	C437.944946,149.849762 427.857269,129.476135 418.075867,108.789398 
	C420.174683,108.304573 421.966919,107.987625 423.759857,107.983704 
	C440.981903,107.945999 458.204224,107.994537 475.425995,107.913109 
	C477.299316,107.904251 479.169525,107.232452 481.041199,106.868134 
z"/>
<path fill="#E74C3C" opacity="1.000000" stroke="none" 
	d="
M1.000000,168.399994 
	C1.806683,167.370163 2.954179,166.911804 3.370065,166.085327 
	C13.050457,146.847687 22.651573,127.570152 33.042530,108.127762 
	C54.806919,107.949867 75.796112,107.944199 96.717445,108.279228 
	C86.344910,129.391403 76.040230,150.162888 65.533524,170.968552 
	C65.331497,171.002731 65.013191,171.260818 64.817329,171.213928 
	C64.621468,171.167023 64.224861,171.096664 63.812149,171.212082 
	C61.449081,171.551468 59.499222,171.964890 57.548298,171.969986 
	C38.698967,172.019211 19.849459,171.999802 1.000000,172.000000 
	C1.000000,170.933334 1.000000,169.866653 1.000000,168.399994 
z"/>
<path fill="#BDC3C7" opacity="1.000000" stroke="none" 
	d="
M449.197540,171.979584 
	C470.152588,171.985443 491.107635,171.991318 512.531372,171.998596 
	C513.000000,186.020889 513.000000,200.041794 513.000000,214.531342 
	C511.938812,216.175308 510.563629,217.189514 509.865051,218.550888 
	C502.897369,232.129608 486.370056,239.969009 470.138428,234.017914 
	C458.126068,228.695786 451.590759,219.850159 448.988495,207.451324 
	C448.919281,195.331299 448.814819,183.668716 448.832031,171.997711 
	C448.953735,171.989288 449.197540,171.979584 449.197540,171.979584 
z"/>
<path fill="#C0392B" opacity="1.000000" stroke="none" 
	d="
M1.000000,172.468658 
	C19.849459,171.999802 38.698967,172.019211 57.548298,171.969986 
	C59.499222,171.964890 61.449081,171.551468 63.834339,171.431824 
	C64.459389,171.785187 64.709793,171.930267 65.012413,172.441803 
	C65.077171,183.630890 65.149979,194.349564 65.151184,205.417679 
	C65.035538,206.476410 64.991501,207.185730 64.717339,208.191986 
	C62.551895,220.975494 54.663986,228.675720 43.914223,234.074799 
	C27.605820,240.362244 9.985565,232.095291 3.062711,216.104675 
	C2.698060,215.262405 2.171381,214.490280 1.360067,213.842743 
	C1.000000,200.312439 1.000000,186.624878 1.000000,172.468658 
z"/>
<path fill="#BDC3C7" opacity="1.000000" stroke="none" 
	d="
M22.159840,64.935410 
	C31.153746,59.950466 40.130081,54.933495 49.145378,49.987545 
	C65.611107,40.954159 82.088387,31.941534 98.602890,22.997889 
	C99.809036,22.344681 101.354424,22.040379 102.742287,22.039793 
	C205.514908,21.996439 308.287811,21.915430 411.059296,22.264458 
	C415.911652,22.280935 420.907501,25.852123 425.563782,28.288950 
	C435.312775,33.390991 444.860687,38.875877 454.526215,44.139206 
	C466.896179,50.875237 479.300629,57.547871 491.308105,64.611572 
	C366.987518,64.983559 243.049133,64.996567 119.110725,64.996750 
	C86.793762,64.996803 54.476803,64.956940 22.159840,64.935410 
z"/>
<path fill="#7F8C8D" opacity="1.000000" stroke="none" 
	d="
M22.094685,65.404106 
	C54.476803,64.956940 86.793762,64.996803 119.110725,64.996750 
	C243.049133,64.996567 366.987518,64.983559 491.383881,64.955536 
	C491.841827,72.055733 491.841827,79.175743 491.841827,87.002533 
	C485.498810,87.002533 479.257507,87.002533 472.323303,87.007927 
	C471.630371,87.013321 471.173523,86.957230 470.875061,86.640190 
	C449.110077,86.263145 427.643555,86.203140 405.693970,86.094711 
	C384.427765,86.077499 363.644684,86.108688 342.407288,86.093933 
	C327.960632,86.063301 313.968292,86.078613 299.512085,86.058945 
	C285.014160,86.054916 270.980164,86.085869 256.482544,86.075562 
	C242.053574,86.067894 228.088196,86.101486 213.648285,86.091629 
	C199.129578,86.058411 185.085419,86.068634 170.570480,86.060272 
	C163.372040,86.065567 156.644348,86.089455 149.457153,86.071419 
	C135.361649,86.061516 121.725655,86.093521 107.847961,86.095573 
	C107.606262,86.065620 107.119331,86.078018 106.643784,86.053436 
	C86.378822,86.019417 66.589355,85.989296 46.800106,86.040482 
	C45.243862,86.044502 43.689083,86.614738 42.133621,86.921822 
	C35.584061,86.921822 29.034502,86.921822 22.029528,86.921822 
	C22.029528,79.633766 22.029528,72.753281 22.094685,65.404106 
z"/>
<path fill="#BEC4C8" opacity="1.000000" stroke="none" 
	d="
M471.173523,86.957230 
	C471.173523,86.957230 471.630371,87.013321 471.860535,87.013618 
	C475.070160,93.386337 478.049683,99.758751 481.035187,106.499657 
	C479.169525,107.232452 477.299316,107.904251 475.425995,107.913109 
	C458.204224,107.994537 440.981903,107.945999 423.759857,107.983704 
	C421.966919,107.987625 420.174683,108.304573 417.844482,108.629333 
	C416.896698,108.163689 416.486542,107.545006 416.023651,106.569351 
	C412.929993,99.835800 409.889038,93.459229 407.325745,87.058182 
	C428.926727,87.008217 450.050140,86.982719 471.173523,86.957230 
z"/>
<path fill="#C1392B" opacity="1.000000" stroke="none" 
	d="
M96.785301,107.938530 
	C75.796112,107.944199 54.806919,107.949867 33.340069,107.939575 
	C36.128551,101.224709 39.394691,94.525810 43.299988,87.467072 
	C64.932823,87.105354 85.926514,87.103462 106.864151,87.439751 
	C103.570404,94.504044 100.332695,101.230171 97.016830,107.964615 
	C96.938683,107.972939 96.785301,107.938530 96.785301,107.938530 
z"/>
<path fill="#D69988" opacity="1.000000" stroke="none" 
	d="
M106.920197,87.101578 
	C85.926514,87.103462 64.932823,87.105354 43.480877,87.176285 
	C43.022614,87.245323 42.574280,87.091042 42.353951,87.006432 
	C43.689083,86.614738 45.243862,86.044502 46.800106,86.040482 
	C66.589355,85.989296 86.378822,86.019417 106.603088,86.310959 
	C106.998688,86.762581 106.959442,86.932083 106.920197,87.101578 
z"/>
<path fill="#F1C40F" opacity="1.000000" stroke="none" 
	d="
M43.901009,406.460999 
	C43.892342,372.281525 43.947536,338.566010 43.999062,304.850525 
	C44.012260,296.213165 44.013866,287.575836 44.551178,278.471802 
	C58.656376,278.004333 72.231201,278.003540 85.897575,278.021301 
	C85.989128,278.039856 86.170639,277.995575 86.101082,278.458557 
	C86.031525,328.490936 86.031525,378.060333 86.031525,427.659424 
	C150.311829,427.659424 213.998749,427.659424 278.000458,427.659424 
	C278.000458,425.511383 278.000458,423.702271 278.000458,421.893158 
	C278.000458,395.909668 278.022461,369.926178 277.993713,343.942719 
	C277.969421,321.960266 277.886414,299.977844 277.919769,278.013885 
	C278.010162,278.032349 278.193695,278.013489 278.649109,278.011292 
	C286.028473,278.002777 292.952484,277.996429 299.926575,278.456970 
	C299.981293,335.571533 299.985931,392.219238 299.990540,448.866943 
	C294.996155,448.911316 290.001770,448.993805 285.007385,448.994324 
	C206.898315,449.002441 128.789261,449.000000 50.680199,449.000000 
	C48.703560,449.000000 46.726921,449.000000 43.963501,449.000000 
	C43.963501,434.753418 43.963501,420.839233 43.901009,406.460999 
z"/>
<path fill="#ECF0F1" opacity="1.000000" stroke="none" 
	d="
M300.456848,448.916626 
	C299.985931,392.219238 299.981293,335.571533 299.994080,278.485870 
	C300.011444,278.047913 300.157867,278.034149 300.615295,278.025116 
	C307.653656,278.015533 314.234589,278.014984 320.888123,278.475891 
	C320.960693,299.828888 320.960693,320.720490 320.960693,341.649109 
	C349.654388,341.649109 377.657288,341.649109 406.184448,341.649109 
	C406.184448,320.205017 406.184448,299.109741 406.641418,278.009735 
	C414.013336,278.014954 420.928253,278.024963 427.916504,278.041718 
	C427.989807,278.048462 428.124390,277.988800 428.073944,278.455750 
	C428.018829,335.571075 428.014130,392.219513 428.009430,448.867920 
	C420.988556,448.907196 413.967682,448.946503 406.474548,448.505371 
	C405.946594,427.023987 405.890900,406.022980 405.899902,384.555908 
	C405.964630,377.509125 405.964630,370.928467 405.964630,364.338531 
	C377.333923,364.338531 349.349152,364.338531 321.164795,364.338531 
	C321.164795,371.456879 321.164795,378.239441 321.097778,385.484985 
	C321.016632,406.949219 321.002472,427.950470 320.988281,448.951782 
	C314.299927,448.956604 307.611542,448.961426 300.456848,448.916626 
z"/>
<path fill="#F1C40F" opacity="1.000000" stroke="none" 
	d="
M428.475922,448.919617 
	C428.014130,392.219513 428.018829,335.571075 428.534149,278.457062 
	C442.641296,277.998505 456.237762,278.005585 469.834259,278.012634 
	C469.889526,309.733490 469.947662,341.454376 469.998413,373.175232 
	C470.015411,383.805420 470.013641,394.435638 470.091919,405.531158 
	C470.163422,420.095551 470.163422,434.194641 470.163422,448.971283 
	C456.063690,448.971283 442.503052,448.971283 428.475922,448.919617 
z"/>
<path fill="#2980B9" opacity="1.000000" stroke="none" 
	d="
M405.835205,385.021973 
	C405.890900,406.022980 405.946594,427.023987 406.006958,448.488342 
	C377.983246,448.963928 349.954773,448.976135 321.457306,448.970032 
	C321.002472,427.950470 321.016632,406.949219 321.555115,385.478241 
	C349.998016,385.013031 377.916626,385.017487 405.835205,385.021973 
z"/>
<path fill="#F39C12" opacity="1.000000" stroke="none" 
	d="
M85.806015,278.002747 
	C72.231201,278.003540 58.656376,278.004333 44.623699,278.008942 
	C44.106541,263.675446 44.047237,249.338120 43.951080,234.537796 
	C54.663986,228.675720 62.551895,220.975494 64.811737,208.494720 
	C65.403290,209.054733 65.670311,209.608963 65.942856,210.539185 
	C68.259438,215.292374 70.570503,219.669540 73.000854,224.351257 
	C74.398415,225.808487 75.676674,226.961166 77.117355,228.408997 
	C81.210815,231.000137 85.141846,233.296143 88.178940,235.070007 
	C87.445793,236.839767 86.130287,238.571838 86.096260,240.328735 
	C85.853104,252.883911 85.871071,265.444122 85.806015,278.002747 
z"/>
<path fill="#F39C12" opacity="1.000000" stroke="none" 
	d="
M469.905762,277.548065 
	C456.237762,278.005585 442.641296,277.998505 428.584595,277.990112 
	C428.124390,277.988800 427.989807,278.048462 427.976868,277.575806 
	C427.963898,263.537476 427.963898,249.971817 427.963898,235.816193 
	C424.594482,235.816193 421.805359,235.816193 419.324493,235.600723 
	C423.723907,234.167496 428.070190,233.473663 431.856476,231.629852 
	C441.676575,226.847778 446.556732,218.201065 448.953217,207.908768 
	C451.590759,219.850159 458.126068,228.695786 469.761475,233.915039 
	C470.033722,248.428329 470.005493,262.755920 469.905762,277.548065 
z"/>
<path fill="#E74D3D" opacity="1.000000" stroke="none" 
	d="
M416.076385,106.926331 
	C416.486542,107.545006 416.896698,108.163689 417.538208,108.942444 
	C427.857269,129.476135 437.944946,149.849762 447.607361,170.601105 
	C426.432800,170.984344 405.683533,170.989853 384.687073,170.764923 
	C374.052612,149.666977 363.665375,128.799469 353.729248,107.942276 
	C373.258911,107.963737 392.337585,107.999550 411.415894,107.940086 
	C412.970428,107.935242 414.522949,107.279579 416.076385,106.926331 
z"/>
<path fill="#E66F37" opacity="1.000000" stroke="none" 
	d="
M384.934296,170.995361 
	C405.683533,170.989853 426.432800,170.984344 447.659454,170.958740 
	C448.397308,171.144821 448.657745,171.350967 449.057861,171.768356 
	C449.197540,171.979584 448.953735,171.989288 448.382629,171.998016 
	C426.931854,172.014282 406.052155,172.021820 385.060791,172.004990 
	C384.949066,171.980621 384.720459,171.982346 384.787537,171.738556 
	C384.881165,171.328278 384.907715,171.161819 384.934296,170.995361 
z"/>
<path fill="#BDC3C7" opacity="1.000000" stroke="none" 
	d="
M85.897568,278.021301 
	C85.871071,265.444122 85.853104,252.883911 86.096260,240.328735 
	C86.130287,238.571838 87.445793,236.839767 88.178940,235.070007 
	C85.141846,233.296143 81.210815,231.000137 77.123878,228.021362 
	C75.605835,226.241302 74.243698,225.144012 72.881561,224.046722 
	C70.570503,219.669540 68.259438,215.292374 65.962067,210.150665 
	C65.724777,207.946838 65.473778,206.507553 65.222786,205.068253 
	C65.149979,194.349564 65.077171,183.630890 64.981941,172.264343 
	C64.959518,171.616486 65.013191,171.260818 65.013191,171.260818 
	C65.013191,171.260818 65.331497,171.002731 65.870583,171.244019 
	C68.204666,171.644531 69.999352,171.938278 71.794701,171.942322 
	C90.822159,171.985107 109.849724,171.981827 128.926056,172.456253 
	C129.027664,183.977325 129.080475,195.033386 129.032837,206.342163 
	C128.861710,206.761826 128.791031,206.928787 128.512329,207.360977 
	C128.241379,208.530960 128.178436,209.435684 128.111633,210.710815 
	C125.552437,215.767410 122.997108,220.453613 120.055977,225.145111 
	C119.155304,225.889114 118.640442,226.627838 117.962158,227.622131 
	C116.827950,228.579544 115.857155,229.281403 114.724670,230.068192 
	C114.355225,230.288956 114.191025,230.465332 113.847748,230.817078 
	C113.453690,230.978638 113.282242,231.005371 112.902115,231.096832 
	C112.422295,231.290543 112.211708,231.485077 111.761696,231.960754 
	C108.939461,233.290054 106.417183,234.403732 103.212112,235.818893 
	C122.374161,235.818893 140.665039,235.818893 159.363708,235.867371 
	C160.864426,235.883591 161.957336,235.851318 163.511200,235.879181 
	C181.705978,235.939301 199.439774,235.939301 217.211700,235.939301 
	C212.892288,233.179382 208.924591,230.644180 204.962738,227.722107 
	C203.607895,226.238449 202.247192,225.141678 200.598175,223.871613 
	C198.186676,219.183945 196.063461,214.669540 193.958466,209.767975 
	C193.725464,207.943344 193.474243,206.505844 193.140945,204.601837 
	C193.110138,193.409409 193.161423,182.683502 193.666718,171.949524 
	C215.026474,171.952362 235.932175,171.963303 256.901611,172.440628 
	C257.019775,184.283936 257.074188,195.660843 257.027802,207.035950 
	C256.927002,207.034149 256.725464,207.028625 256.520691,207.305206 
	C256.249420,208.503372 256.182953,209.424988 256.112305,210.720093 
	C253.554153,215.775848 251.000183,220.458099 248.059692,225.145630 
	C247.157639,225.890854 246.642105,226.630829 245.963440,227.626190 
	C244.830292,228.582306 243.860291,229.283035 242.727509,230.068634 
	C242.355667,230.289673 242.190613,230.466888 241.848358,230.819885 
	C241.456436,230.980911 241.285736,231.007156 240.905289,231.097855 
	C240.423019,231.291443 240.211472,231.486649 239.761322,231.963959 
	C236.938828,233.293472 234.415878,234.406967 231.892944,235.520462 
	C231.954224,235.786438 232.015503,236.052399 232.076782,236.318359 
	C247.278336,236.318359 262.479889,236.318359 278.193695,236.318359 
	C278.193695,250.497757 278.193695,264.255615 278.193695,278.013489 
	C278.193695,278.013489 278.010162,278.032349 277.462585,278.013184 
	C270.323730,278.012451 263.732513,278.030853 257.088928,277.580811 
	C257.036591,270.541931 257.036591,263.971497 257.036591,257.367126 
	C235.321869,257.367126 214.357803,257.367126 192.858704,257.367126 
	C192.858704,264.501312 192.858704,271.275238 192.399353,278.032501 
	C185.339172,278.023865 178.738342,278.031860 172.080902,277.572754 
	C172.024261,270.533752 172.024261,263.961853 172.024261,257.375671 
	C150.276932,257.375671 129.300674,257.375671 107.791550,257.375671 
	C107.791550,264.524994 107.791550,271.303497 107.336441,278.062408 
	C99.977768,278.027069 93.074203,278.011322 86.170639,277.995575 
	C86.170639,277.995575 85.989128,278.039856 85.897568,278.021301 
M223.392090,235.114288 
	C223.275650,235.220413 223.112778,235.308319 223.061172,235.439865 
	C223.032898,235.511932 223.189774,235.753326 223.267761,235.755524 
	C224.103790,235.779160 224.940750,235.770233 225.777451,235.770233 
	C225.778336,235.555634 225.779205,235.341034 225.780075,235.126434 
	C225.169708,235.092728 224.559326,235.059006 223.392090,235.114288 
M97.040108,235.021744 
	C96.368416,235.108582 95.696732,235.195419 95.025040,235.282257 
	C95.107140,235.552399 95.189232,235.822540 95.271332,236.092682 
	C96.043999,235.763107 96.816666,235.433533 97.040108,235.021744 
z"/>
<path fill="#ECEFF0" opacity="1.000000" stroke="none" 
	d="
M128.877258,171.991211 
	C109.849724,171.981827 90.822159,171.985107 71.794701,171.942322 
	C69.999352,171.938278 68.204666,171.644531 66.072609,171.209839 
	C76.040230,150.162888 86.344910,129.391403 96.717445,108.279228 
	C96.785301,107.938530 96.938683,107.972939 97.477386,107.970482 
	C117.005569,107.985832 135.995163,107.977936 154.984314,108.064484 
	C156.724792,108.072411 158.462524,108.684219 160.103149,109.374588 
	C158.452866,112.855972 156.892517,115.974228 155.350464,119.101486 
	C146.833755,136.373123 138.321503,153.646957 129.599625,171.034485 
	C129.148346,171.398880 129.070236,171.692673 129.088867,172.008743 
	C129.020523,171.987183 128.877258,171.991211 128.877258,171.991211 
z"/>
<path fill="#ECEFF0" opacity="1.000000" stroke="none" 
	d="
M64.817329,171.213928 
	C65.013191,171.260818 64.959518,171.616486 64.989990,171.793945 
	C64.709793,171.930267 64.459389,171.785187 64.247055,171.316406 
	C64.224861,171.096664 64.621468,171.167023 64.817329,171.213928 
z"/>
<path fill="#C0392B" opacity="1.000000" stroke="none" 
	d="
M385.172485,172.029358 
	C406.052155,172.021820 426.931854,172.014282 448.260925,172.006439 
	C448.814819,183.668716 448.919281,195.331299 448.988495,207.451324 
	C446.556732,218.201065 441.676575,226.847778 431.856476,231.629852 
	C428.070190,233.473663 423.723907,234.167496 418.919312,235.651260 
	C417.122375,235.884491 416.038940,235.851700 414.655396,235.600128 
	C410.855896,234.429474 407.170044,233.899292 403.890808,232.449387 
	C392.506622,227.415909 387.221313,217.843445 385.091156,205.617279 
	C385.090210,194.106247 385.131348,183.067795 385.172485,172.029358 
z"/>
<path fill="#BDC3C6" opacity="1.000000" stroke="none" 
	d="
M65.151184,205.417679 
	C65.473778,206.507553 65.724777,207.946838 65.956551,209.774658 
	C65.670311,209.608963 65.403290,209.054733 65.041870,208.197769 
	C64.991501,207.185730 65.035538,206.476410 65.151184,205.417679 
z"/>
<path fill="#BEC3C6" opacity="1.000000" stroke="none" 
	d="
M160.201523,109.015610 
	C158.462524,108.684219 156.724792,108.072411 154.984314,108.064484 
	C135.995163,107.977936 117.005569,107.985832 97.555542,107.962158 
	C100.332695,101.230171 103.570404,94.504044 106.864151,87.439751 
	C106.959442,86.932083 106.998688,86.762581 107.078636,86.335541 
	C107.119331,86.078018 107.606262,86.065620 108.154015,86.359390 
	C121.864006,86.751892 135.026199,86.861336 148.188614,86.913422 
	C148.763565,86.915703 149.340607,86.392021 149.916672,86.113342 
	C156.644348,86.089455 163.372040,86.065567 170.658081,86.382759 
	C171.296356,86.932320 171.376251,87.140800 171.295944,87.662613 
	C167.928207,94.604958 164.720657,101.233963 161.331757,107.996605 
	C160.834106,108.425362 160.517807,108.720482 160.201523,109.015610 
z"/>
<path fill="#D6D5CE" opacity="1.000000" stroke="none" 
	d="
M470.875061,86.640190 
	C450.050140,86.982719 428.926727,87.008217 407.132202,87.014267 
	C406.461029,86.994827 406.094574,86.842796 406.112671,86.667587 
	C406.130737,86.492371 406.177063,86.143127 406.177063,86.143127 
	C427.643555,86.203140 449.110077,86.263145 470.875061,86.640190 
z"/>
<path fill="#D69886" opacity="1.000000" stroke="none" 
	d="
M405.693970,86.094711 
	C406.177063,86.143127 406.130737,86.492371 405.639587,86.722343 
	C384.466278,86.995171 363.784088,87.038025 343.030884,86.848419 
	C342.959869,86.615959 342.861603,86.139877 342.861603,86.139877 
	C363.644684,86.108688 384.427765,86.077499 405.693970,86.094711 
z"/>
<path fill="#D59886" opacity="1.000000" stroke="none" 
	d="
M171.456146,87.349281 
	C171.376251,87.140800 171.296356,86.932320 171.128845,86.401352 
	C185.085419,86.068634 199.129578,86.058411 213.607391,86.325073 
	C214.041016,86.601952 213.924026,87.062363 213.461731,87.038788 
	C199.151688,87.126564 185.303909,87.237923 171.456146,87.349281 
z"/>
<path fill="#D6D5CD" opacity="1.000000" stroke="none" 
	d="
M342.407288,86.093933 
	C342.861603,86.139877 342.959869,86.615959 342.977112,86.854263 
	C342.994324,87.092560 342.953918,86.992126 342.488800,86.992355 
	C328.095856,86.990852 314.167999,86.989120 300.154327,86.769882 
	C300.068481,86.552368 299.975983,86.093918 299.975983,86.093918 
	C313.968292,86.078613 327.960632,86.063301 342.407288,86.093933 
z"/>
<path fill="#D6D5CE" opacity="1.000000" stroke="none" 
	d="
M213.924026,87.062363 
	C213.924026,87.062363 214.041016,86.601952 214.081909,86.368515 
	C228.088196,86.101486 242.053574,86.067894 256.443909,86.296860 
	C256.868835,86.559410 256.717010,86.983620 256.272217,86.989265 
	C241.906570,86.991249 227.985703,86.987579 214.044922,87.030930 
	C214.024979,87.077950 213.924026,87.062363 213.924026,87.062363 
z"/>
<path fill="#D69886" opacity="1.000000" stroke="none" 
	d="
M256.717010,86.983620 
	C256.717010,86.983620 256.868835,86.559410 256.907471,86.338120 
	C270.980164,86.085869 285.014160,86.054916 299.512085,86.058945 
	C299.975983,86.093918 300.068481,86.552368 300.039185,86.814842 
	C300.009918,87.077316 299.764404,87.082680 299.312500,87.063492 
	C284.957916,87.046455 271.055176,87.048615 257.040100,87.056686 
	C256.927765,87.062607 256.717010,86.983620 256.717010,86.983620 
z"/>
<path fill="#D6D5CE" opacity="1.000000" stroke="none" 
	d="
M149.457153,86.071426 
	C149.340607,86.392021 148.763565,86.915703 148.188614,86.913422 
	C135.026199,86.861336 121.864006,86.751892 108.395714,86.389343 
	C121.725655,86.093521 135.361649,86.061516 149.457153,86.071426 
z"/>
<path fill="#C13A2C" opacity="1.000000" stroke="none" 
	d="
M343.048126,87.086716 
	C363.784088,87.038025 384.466278,86.995171 405.621521,86.897552 
	C406.094574,86.842796 406.461029,86.994827 406.654572,87.038742 
	C409.889038,93.459229 412.929993,99.835800 416.023651,106.569351 
	C414.522949,107.279579 412.970428,107.935242 411.415894,107.940086 
	C392.337585,107.999550 373.258911,107.963737 353.649902,107.956390 
	C353.119476,107.960205 352.959747,107.940079 352.944397,107.584488 
	C349.604004,100.483307 346.278961,93.737717 342.953918,86.992126 
	C342.953918,86.992126 342.994324,87.092560 343.048126,87.086716 
z"/>
<path fill="#EBF0F1" opacity="1.000000" stroke="none" 
	d="
M172.137527,278.039856 
	C178.738342,278.031860 185.339172,278.023865 192.460785,278.046814 
	C192.981567,278.077728 193.090576,278.014252 193.050720,278.478577 
	C193.010880,292.835144 193.010880,306.727386 193.010880,320.650452 
	C214.657181,320.650452 235.654617,320.650452 256.909393,320.650452 
	C256.909393,306.207916 256.909393,292.111084 256.963867,278.046051 
	C257.018372,278.077850 257.141266,278.049225 257.141266,278.049255 
	C263.732513,278.030853 270.323730,278.012451 277.372192,277.994751 
	C277.886414,299.977844 277.969421,321.960266 277.993713,343.942719 
	C278.022461,369.926178 278.000458,395.909668 278.000458,421.893158 
	C278.000458,423.702271 278.000458,425.511383 278.000458,427.659424 
	C213.998749,427.659424 150.311829,427.659424 86.031525,427.659424 
	C86.031525,378.060333 86.031525,328.490936 86.101082,278.458557 
	C93.074203,278.011322 99.977768,278.027069 107.402557,278.072571 
	C107.923782,278.102356 108.043884,278.043396 108.016075,278.506317 
	C107.988266,292.858551 107.988266,306.747894 107.988266,320.642456 
	C129.674408,320.642456 150.671402,320.642456 171.901550,320.642456 
	C171.901550,306.190247 171.901550,292.091949 171.955536,278.030823 
	C172.009506,278.067993 172.137527,278.039856 172.137527,278.039856 
M193.032242,385.947174 
	C193.032242,392.561432 193.032242,399.175720 193.032242,405.833984 
	C214.626511,405.833984 235.657242,405.833984 256.834106,405.833984 
	C256.834106,398.634766 256.834106,391.827911 256.962952,384.089111 
	C256.962952,370.189056 256.962952,356.289001 256.962952,342.356049 
	C235.343628,342.356049 214.338547,342.356049 193.165924,342.356049 
	C193.165924,356.813171 193.165924,370.917053 193.032242,385.947174 
M171.960571,384.104492 
	C171.960571,370.203094 171.960571,356.301666 171.960571,342.350708 
	C150.354538,342.350708 129.349472,342.350708 108.135551,342.350708 
	C108.135551,356.801788 108.135551,370.905426 107.958038,385.931366 
	C107.958038,392.543030 107.958038,399.154694 107.958038,405.836334 
	C129.563705,405.836334 150.599030,405.836334 171.823563,405.836334 
	C171.823563,398.643188 171.823563,391.840363 171.960571,384.104492 
z"/>
<path fill="#F29B13" opacity="1.000000" stroke="none" 
	d="
M241.115021,231.033401 
	C241.285736,231.007156 241.456436,230.980911 242.042877,230.789703 
	C242.695465,230.473724 242.839340,230.260086 242.890274,229.983780 
	C243.860291,229.283035 244.830292,228.582306 246.264099,227.488968 
	C247.300659,226.444351 247.873428,225.792358 248.446213,225.140366 
	C251.000183,220.458099 253.554153,215.775848 256.331848,210.439178 
	C256.612183,208.866074 256.668823,207.947342 256.725464,207.028625 
	C256.725464,207.028625 256.927002,207.034149 257.252380,207.324310 
	C261.478973,231.551407 286.251038,243.025620 306.546692,230.187607 
	C314.708649,225.024765 318.846619,217.067978 321.043152,208.193329 
	C321.404633,209.050079 321.671539,209.604935 321.944092,210.535934 
	C324.260986,215.290039 326.572235,219.667969 329.002869,224.350327 
	C330.400024,225.807098 331.677856,226.959457 333.118164,228.406952 
	C337.226501,231.036057 341.172333,233.370041 346.108276,236.289673 
	C330.127472,236.289673 315.236206,236.289673 300.157867,236.289673 
	C300.157867,250.487579 300.157867,264.260864 300.157867,278.034149 
	C300.157867,278.034149 300.011444,278.047913 299.943970,278.018982 
	C292.952484,277.996429 286.028473,278.002777 278.649109,278.011292 
	C278.193695,264.255615 278.193695,250.497757 278.193695,236.318359 
	C262.479889,236.318359 247.278336,236.318359 232.076782,236.318359 
	C232.015503,236.052399 231.954224,235.786438 231.892944,235.520462 
	C234.415878,234.406967 236.938828,233.293472 239.984863,231.933640 
	C240.787750,231.541260 240.990112,231.323288 241.115021,231.033401 
z"/>
<path fill="#BDC3C7" opacity="1.000000" stroke="none" 
	d="
M328.883514,224.045914 
	C326.572235,219.667969 324.260986,215.290039 321.962952,210.147736 
	C321.725189,207.945099 321.474152,206.506805 321.141022,204.601990 
	C321.087738,193.418228 321.116547,182.701004 321.604828,171.975204 
	C342.949677,171.971863 363.835083,171.977112 384.720459,171.982346 
	C384.720459,171.982346 384.949066,171.980621 385.060791,172.004990 
	C385.131348,183.067795 385.090210,194.106247 384.990631,205.869385 
	C384.861572,206.761230 384.790955,206.928375 384.512329,207.360809 
	C384.241455,208.530762 384.178558,209.435440 384.111755,210.710541 
	C381.552490,215.767242 378.997101,220.453552 376.055939,225.145126 
	C375.155304,225.889099 374.640472,226.627792 373.962189,227.622070 
	C372.827942,228.579514 371.857117,229.281387 370.724640,230.068207 
	C370.355286,230.288971 370.191132,230.465302 369.847809,230.817062 
	C369.453674,230.978668 369.282166,231.005402 368.902039,231.096832 
	C368.422333,231.290543 368.211823,231.485046 367.761841,231.960693 
	C364.939514,233.290039 362.417145,234.403748 359.212006,235.818924 
	C378.373932,235.818924 396.664703,235.818924 414.955505,235.818924 
	C416.038940,235.851700 417.122375,235.884491 418.611023,235.866730 
	C421.805359,235.816193 424.594482,235.816193 427.963898,235.816193 
	C427.963898,249.971817 427.963898,263.537476 427.903564,277.569061 
	C420.928253,278.024963 414.013336,278.014954 406.538696,278.016937 
	C405.978973,278.028900 405.773895,278.009583 405.857635,277.547943 
	C405.941376,270.495758 405.941376,263.905243 405.941376,257.325256 
	C377.298035,257.325256 349.388153,257.325256 321.226135,257.325256 
	C321.226135,264.433411 321.226135,271.221558 321.123596,278.019348 
	C321.021027,278.028961 320.815552,278.014465 320.815552,278.014465 
	C314.234589,278.014984 307.653656,278.015533 300.615295,278.025116 
	C300.157867,264.260864 300.157867,250.487579 300.157867,236.289673 
	C315.236206,236.289673 330.127472,236.289673 346.108276,236.289673 
	C341.172333,233.370041 337.226501,231.036057 333.124451,228.019531 
	C331.606689,226.239960 330.245087,225.142944 328.883514,224.045914 
M351.926422,235.026978 
	C351.650757,235.147476 351.372223,235.262482 351.106323,235.401672 
	C351.089722,235.410339 351.170288,235.703476 351.208954,235.704269 
	C352.094604,235.722382 352.980682,235.718246 353.866699,235.718246 
	C353.857452,235.557556 353.848236,235.396866 353.838989,235.236176 
	C353.392670,235.160873 352.946320,235.085587 351.926422,235.026978 
z"/>
<path fill="#3498DB" opacity="1.000000" stroke="none" 
	d="
M406.081726,278.021698 
	C406.184448,299.109741 406.184448,320.205017 406.184448,341.649109 
	C377.657288,341.649109 349.654388,341.649109 320.960693,341.649109 
	C320.960693,320.720490 320.960693,299.828888 320.888123,278.475891 
	C320.815552,278.014465 321.021027,278.028961 321.576233,278.017822 
	C350.012238,278.007629 377.893066,278.008606 405.773895,278.009583 
	C405.773895,278.009583 405.978973,278.028900 406.081726,278.021698 
z"/>
<path fill="#3498DB" opacity="1.000000" stroke="none" 
	d="
M405.899902,384.555908 
	C377.916626,385.017487 349.998016,385.013031 321.622131,385.015289 
	C321.164795,378.239441 321.164795,371.456879 321.164795,364.338531 
	C349.349152,364.338531 377.333923,364.338531 405.964630,364.338531 
	C405.964630,370.928467 405.964630,377.509125 405.899902,384.555908 
z"/>
<path fill="#BDC3C6" opacity="1.000000" stroke="none" 
	d="
M73.000854,224.351257 
	C74.243698,225.144012 75.605835,226.241302 76.961456,227.726227 
	C75.676674,226.961166 74.398415,225.808487 73.000854,224.351257 
z"/>
<path fill="#ECEFF0" opacity="1.000000" stroke="none" 
	d="
M384.787537,171.738556 
	C363.835083,171.977112 342.949677,171.971863 321.536713,171.971008 
	C321.009125,171.975388 320.879333,172.017593 320.913879,171.800690 
	C320.915192,171.266251 320.760132,171.027985 320.410156,170.462646 
	C320.107483,168.922638 319.918640,167.778931 319.642242,166.656799 
	C314.828766,147.115417 310.004578,127.576706 305.639465,108.014664 
	C321.717407,107.974625 337.338562,107.957352 352.959747,107.940079 
	C352.959747,107.940079 353.119476,107.960205 353.198822,107.946091 
	C363.665375,128.799469 374.052612,149.666977 384.687073,170.764923 
	C384.907715,171.161819 384.881165,171.328278 384.787537,171.738556 
z"/>
<path fill="#C0392B" opacity="1.000000" stroke="none" 
	d="
M321.077240,171.979584 
	C321.116547,182.701004 321.087738,193.418228 321.069336,204.950806 
	C321.036041,206.474594 320.992310,207.183014 320.948578,207.891434 
	C318.846619,217.067978 314.708649,225.024765 306.546692,230.187607 
	C286.251038,243.025620 261.478973,231.551407 257.353149,207.326111 
	C257.074188,195.660843 257.019775,184.283936 256.966675,172.435181 
	C256.968018,171.963333 257.091278,172.006378 257.553467,172.005600 
	C278.970184,172.009079 299.924774,172.013336 320.879333,172.017593 
	C320.879333,172.017593 321.009125,171.975388 321.077240,171.979584 
z"/>
<path fill="#C0392B" opacity="1.000000" stroke="none" 
	d="
M163.050247,235.819046 
	C161.957336,235.851318 160.864426,235.883591 159.063568,235.648621 
	C154.856140,234.429520 151.170181,233.899384 147.890945,232.449448 
	C136.506607,227.415833 131.220963,217.843399 129.133286,206.089432 
	C129.080475,195.033386 129.027664,183.977325 128.926056,172.456238 
	C128.877258,171.991211 129.020523,171.987183 129.546173,172.006775 
	C151.026749,172.016998 171.981674,172.007614 193.003387,171.972961 
	C193.070190,171.947678 193.212692,171.957611 193.212692,171.957611 
	C193.161423,182.683502 193.110138,193.409409 193.069321,204.950089 
	C193.036545,206.472015 192.993332,207.179169 192.718506,208.183090 
	C189.885956,213.934540 187.966675,219.872498 184.522888,224.729553 
	C179.471054,231.854614 171.377625,234.360641 163.050247,235.819046 
z"/>
<path fill="#ECEFF0" opacity="1.000000" stroke="none" 
	d="
M256.902954,171.968781 
	C235.932175,171.963303 215.026474,171.952362 193.666718,171.949524 
	C193.212692,171.957611 193.070190,171.947678 193.068970,171.721512 
	C193.041489,171.323868 193.015244,171.152390 193.169037,170.647278 
	C198.522125,149.527878 203.695206,128.742126 208.934174,107.980026 
	C209.000076,108.003685 209.138977,107.985664 209.597717,107.981697 
	C225.663971,107.978996 241.271469,107.980263 256.946594,108.003807 
	C257.014191,108.026085 257.136444,107.953094 257.080566,108.421417 
	C257.065033,129.587021 257.105347,150.284317 257.078461,171.234955 
	C257.037933,171.660980 257.064606,171.833679 257.091278,172.006378 
	C257.091278,172.006378 256.968018,171.963333 256.902954,171.968781 
z"/>
<path fill="#2980B9" opacity="1.000000" stroke="none" 
	d="
M192.920135,278.063416 
	C192.858704,271.275238 192.858704,264.501312 192.858704,257.367126 
	C214.357803,257.367126 235.321869,257.367126 257.036591,257.367126 
	C257.036591,263.971497 257.036591,270.541931 257.088928,277.580780 
	C257.141266,278.049225 257.018372,278.077850 256.501953,278.047333 
	C235.020554,278.015961 214.055573,278.015106 193.090576,278.014252 
	C193.090576,278.014252 192.981567,278.077728 192.920135,278.063416 
z"/>
<path fill="#2980B9" opacity="1.000000" stroke="none" 
	d="
M107.857666,278.092163 
	C107.791550,271.303497 107.791550,264.524994 107.791550,257.375671 
	C129.300674,257.375671 150.276932,257.375671 172.024261,257.375671 
	C172.024261,263.961853 172.024261,270.533752 172.080902,277.572754 
	C172.137527,278.039856 172.009506,278.067993 171.494019,278.037323 
	C150.000320,278.018890 129.022095,278.031128 108.043884,278.043396 
	C108.043884,278.043396 107.923782,278.102356 107.857666,278.092163 
z"/>
<path fill="#F29B14" opacity="1.000000" stroke="none" 
	d="
M129.032837,206.342163 
	C131.220963,217.843399 136.506607,227.415833 147.890945,232.449448 
	C151.170181,233.899384 154.856140,234.429520 158.655762,235.600128 
	C140.665039,235.818893 122.374161,235.818893 103.212112,235.818893 
	C106.417183,234.403732 108.939461,233.290054 111.984306,231.930313 
	C112.785362,231.538376 112.986671,231.320984 113.110802,231.032104 
	C113.282242,231.005371 113.453690,230.978638 114.041336,230.786819 
	C114.693176,230.471191 114.836113,230.258377 114.886360,229.983261 
	C115.857155,229.281403 116.827950,228.579544 118.262413,227.485199 
	C119.297989,226.441757 119.869888,225.790787 120.441788,225.139816 
	C122.997108,220.453613 125.552437,215.767410 128.328491,210.437042 
	C128.606277,208.893845 128.663315,207.994781 128.720367,207.095734 
	C128.791031,206.928787 128.861710,206.761826 129.032837,206.342163 
z"/>
<path fill="#F29B14" opacity="1.000000" stroke="none" 
	d="
M163.511200,235.879181 
	C171.377625,234.360641 179.471054,231.854614 184.522888,224.729553 
	C187.966675,219.872498 189.885956,213.934540 192.813599,208.485916 
	C193.406952,209.046356 193.673599,209.600739 193.940247,210.155136 
	C196.063461,214.669540 198.186676,219.183945 200.717712,224.175751 
	C202.402649,225.805115 203.679764,226.957047 204.956879,228.108994 
	C208.924591,230.644180 212.892288,233.179382 217.211700,235.939301 
	C199.439774,235.939301 181.705978,235.939301 163.511200,235.879181 
z"/>
<path fill="#BDC3C6" opacity="1.000000" stroke="none" 
	d="
M204.962738,227.722107 
	C203.679764,226.957047 202.402649,225.805115 201.005997,224.349030 
	C202.247192,225.141678 203.607895,226.238449 204.962738,227.722107 
z"/>
<path fill="#BDC3C6" opacity="1.000000" stroke="none" 
	d="
M223.670532,235.069794 
	C224.559326,235.059006 225.169708,235.092728 225.780075,235.126434 
	C225.779205,235.341034 225.778336,235.555634 225.777451,235.770233 
	C224.940750,235.770233 224.103790,235.779160 223.267761,235.755524 
	C223.189774,235.753326 223.032898,235.511932 223.061172,235.439865 
	C223.112778,235.308319 223.275650,235.220413 223.670532,235.069794 
z"/>
<path fill="#BDC3C6" opacity="1.000000" stroke="none" 
	d="
M97.314720,235.062836 
	C96.816666,235.433533 96.043999,235.763107 95.271332,236.092682 
	C95.189232,235.822540 95.107140,235.552399 95.025040,235.282257 
	C95.696732,235.195419 96.368416,235.108582 97.314720,235.062836 
z"/>
<path fill="#BDC3C6" opacity="1.000000" stroke="none" 
	d="
M193.958466,209.767975 
	C193.673599,209.600739 193.406952,209.046356 193.045227,208.189133 
	C192.993332,207.179169 193.036545,206.472015 193.151398,205.416626 
	C193.474243,206.505844 193.725464,207.943344 193.958466,209.767975 
z"/>
<path fill="#BDC3C6" opacity="1.000000" stroke="none" 
	d="
M120.055977,225.145111 
	C119.869888,225.790787 119.297989,226.441757 118.425827,227.229645 
	C118.640442,226.627838 119.155304,225.889114 120.055977,225.145111 
z"/>
<path fill="#BDC3C6" opacity="1.000000" stroke="none" 
	d="
M248.059692,225.145630 
	C247.873428,225.792358 247.300659,226.444351 246.427216,227.233582 
	C246.642105,226.630829 247.157639,225.890854 248.059692,225.145630 
z"/>
<path fill="#BDC3C6" opacity="1.000000" stroke="none" 
	d="
M128.512344,207.360977 
	C128.663315,207.994781 128.606277,208.893845 128.332367,210.066650 
	C128.178436,209.435684 128.241379,208.530960 128.512344,207.360977 
z"/>
<path fill="#BDC3C6" opacity="1.000000" stroke="none" 
	d="
M256.520691,207.305206 
	C256.668823,207.947342 256.612183,208.866074 256.335999,210.065689 
	C256.182953,209.424988 256.249420,208.503372 256.520691,207.305206 
z"/>
<path fill="#BDC3C6" opacity="1.000000" stroke="none" 
	d="
M240.905289,231.097855 
	C240.990112,231.323288 240.787750,231.541260 240.284424,231.717621 
	C240.211472,231.486649 240.423019,231.291443 240.905289,231.097855 
z"/>
<path fill="#BDC3C6" opacity="1.000000" stroke="none" 
	d="
M112.902115,231.096832 
	C112.986671,231.320984 112.785362,231.538376 112.284271,231.714691 
	C112.211708,231.485077 112.422295,231.290543 112.902115,231.096832 
z"/>
<path fill="#BDC3C6" opacity="1.000000" stroke="none" 
	d="
M242.727509,230.068634 
	C242.839340,230.260086 242.695465,230.473724 242.264114,230.654907 
	C242.190613,230.466888 242.355667,230.289673 242.727509,230.068634 
z"/>
<path fill="#BDC3C6" opacity="1.000000" stroke="none" 
	d="
M114.724670,230.068192 
	C114.836113,230.258377 114.693176,230.471191 114.263962,230.651978 
	C114.191025,230.465332 114.355225,230.288956 114.724670,230.068192 
z"/>
<path fill="#E74D3C" opacity="1.000000" stroke="none" 
	d="
M208.868256,107.956360 
	C203.695206,128.742126 198.522125,149.527878 192.701080,170.654510 
	C171.304642,170.970276 150.556198,170.945160 129.807739,170.920044 
	C138.321503,153.646957 146.833755,136.373123 155.350464,119.101486 
	C156.892517,115.974228 158.452866,112.855972 160.103149,109.374588 
	C160.517807,108.720482 160.834106,108.425362 161.840103,108.031052 
	C177.975952,107.940025 193.422104,107.948196 208.868256,107.956360 
z"/>
<path fill="#E66F37" opacity="1.000000" stroke="none" 
	d="
M129.599625,171.034485 
	C150.556198,170.945160 171.304642,170.970276 192.521057,170.988159 
	C193.015244,171.152390 193.041489,171.323868 193.002167,171.746796 
	C171.981674,172.007614 151.026749,172.016998 129.614517,172.028351 
	C129.070236,171.692673 129.148346,171.398880 129.599625,171.034485 
z"/>
<path fill="#F29B14" opacity="1.000000" stroke="none" 
	d="
M376.441742,225.139847 
	C378.997101,220.453552 381.552490,215.767242 384.328583,210.436798 
	C384.606323,208.893616 384.663330,207.994568 384.720306,207.095535 
	C384.790955,206.928375 384.861572,206.761230 385.032715,206.341980 
	C387.221313,217.843445 392.506622,227.415909 403.890808,232.449387 
	C407.170044,233.899292 410.855896,234.429474 414.655396,235.600128 
	C396.664703,235.818924 378.373932,235.818924 359.212006,235.818924 
	C362.417145,234.403748 364.939514,233.290039 367.984406,231.930237 
	C368.785370,231.538330 368.986603,231.320969 369.110687,231.032120 
	C369.282166,231.005402 369.453674,230.978668 370.041351,230.786804 
	C370.693176,230.471176 370.836090,230.258377 370.886292,229.983246 
	C371.857117,229.281387 372.827942,228.579514 374.262451,227.485138 
	C375.297974,226.441711 375.869873,225.790787 376.441742,225.139847 
z"/>
<path fill="#C13A2C" opacity="1.000000" stroke="none" 
	d="
M208.934174,107.980026 
	C193.422104,107.948196 177.975952,107.940025 162.021454,107.897415 
	C164.720657,101.233963 167.928207,94.604958 171.295944,87.662613 
	C185.303909,87.237923 199.151688,87.126564 213.461731,87.038788 
	C213.924026,87.062363 214.024979,87.077950 213.997345,87.419662 
	C212.359467,94.502808 210.749222,101.244240 209.138977,107.985664 
	C209.138977,107.985664 209.000076,108.003685 208.934174,107.980026 
z"/>
<path fill="#BEC3C7" opacity="1.000000" stroke="none" 
	d="
M352.944397,107.584488 
	C337.338562,107.957352 321.717407,107.974625 305.516174,107.772049 
	C304.721252,107.267731 304.506409,106.983269 304.237732,106.307709 
	C302.710754,99.638626 301.237579,93.360649 299.764404,87.082680 
	C299.764404,87.082680 300.009918,87.077316 300.125061,87.032349 
	C314.167999,86.989120 328.095856,86.990852 342.488800,86.992355 
	C346.278961,93.737717 349.604004,100.483307 352.944397,107.584488 
z"/>
<path fill="#BEC3C7" opacity="1.000000" stroke="none" 
	d="
M209.597717,107.981697 
	C210.749222,101.244240 212.359467,94.502808 214.017273,87.372650 
	C227.985703,86.987579 241.906570,86.991249 256.272217,86.989265 
	C256.717010,86.983620 256.927765,87.062607 256.979248,87.517799 
	C256.980133,94.642502 256.929565,101.312019 256.878967,107.981529 
	C241.271469,107.980263 225.663971,107.978996 209.597717,107.981697 
z"/>
<path fill="#C1392B" opacity="1.000000" stroke="none" 
	d="
M256.946594,108.003807 
	C256.929565,101.312019 256.980133,94.642502 257.091583,87.511887 
	C271.055176,87.048615 284.957916,87.046455 299.312500,87.063492 
	C301.237579,93.360649 302.710754,99.638626 303.926636,106.632797 
	C302.222260,107.561081 300.775574,107.953583 299.327942,107.957275 
	C285.264221,107.993118 271.200287,107.963821 257.136444,107.953094 
	C257.136444,107.953094 257.014191,108.026085 256.946594,108.003807 
z"/>
<path fill="#3498DB" opacity="1.000000" stroke="none" 
	d="
M108.016075,278.506317 
	C129.022095,278.031128 150.000320,278.018890 171.440033,278.000153 
	C171.901550,292.091949 171.901550,306.190247 171.901550,320.642456 
	C150.671402,320.642456 129.674408,320.642456 107.988266,320.642456 
	C107.988266,306.747894 107.988266,292.858551 108.016075,278.506317 
z"/>
<path fill="#3498DB" opacity="1.000000" stroke="none" 
	d="
M193.050720,278.478577 
	C214.055573,278.015106 235.020554,278.015961 256.447479,278.015533 
	C256.909393,292.111084 256.909393,306.207916 256.909393,320.650452 
	C235.654617,320.650452 214.657181,320.650452 193.010880,320.650452 
	C193.010880,306.727386 193.010880,292.835144 193.050720,278.478577 
z"/>
<path fill="#3498DB" opacity="1.000000" stroke="none" 
	d="
M108.135551,385.009064 
	C108.135551,370.905426 108.135551,356.801788 108.135551,342.350708 
	C129.349472,342.350708 150.354538,342.350708 171.960571,342.350708 
	C171.960571,356.301666 171.960571,370.203094 171.435562,384.559998 
	C149.985550,385.013367 129.060547,385.011230 108.135551,385.009064 
z"/>
<path fill="#3498DB" opacity="1.000000" stroke="none" 
	d="
M193.165924,385.020905 
	C193.165924,370.917053 193.165924,356.813171 193.165924,342.356049 
	C214.338547,342.356049 235.343628,342.356049 256.962952,342.356049 
	C256.962952,356.289001 256.962952,370.189056 256.441284,384.548645 
	C235.001694,385.012421 214.083817,385.016663 193.165924,385.020905 
z"/>
<path fill="#2980B9" opacity="1.000000" stroke="none" 
	d="
M108.046799,385.470215 
	C129.060547,385.011230 149.985550,385.013367 171.367065,385.026489 
	C171.823563,391.840363 171.823563,398.643188 171.823563,405.836334 
	C150.599030,405.836334 129.563705,405.836334 107.958038,405.836334 
	C107.958038,399.154694 107.958038,392.543030 108.046799,385.470215 
z"/>
<path fill="#2980B9" opacity="1.000000" stroke="none" 
	d="
M193.099091,385.484039 
	C214.083817,385.016663 235.001694,385.012421 256.376831,385.014618 
	C256.834106,391.827911 256.834106,398.634766 256.834106,405.833984 
	C235.657242,405.833984 214.626511,405.833984 193.032242,405.833984 
	C193.032242,399.175720 193.032242,392.561432 193.099091,385.484039 
z"/>
<path fill="#BDC3C6" opacity="1.000000" stroke="none" 
	d="
M329.002869,224.350327 
	C330.245087,225.142944 331.606689,226.239960 332.961975,227.724396 
	C331.677856,226.959457 330.400024,225.807098 329.002869,224.350327 
z"/>
<path fill="#BDC3C6" opacity="1.000000" stroke="none" 
	d="
M321.043152,208.193329 
	C320.992310,207.183014 321.036041,206.474594 321.151428,205.417358 
	C321.474152,206.506805 321.725189,207.945099 321.957336,209.771576 
	C321.671539,209.604935 321.404633,209.050079 321.043152,208.193329 
z"/>
<path fill="#2980B9" opacity="1.000000" stroke="none" 
	d="
M405.857635,277.547943 
	C377.893066,278.008606 350.012238,278.007629 321.678772,278.008179 
	C321.226135,271.221558 321.226135,264.433411 321.226135,257.325256 
	C349.388153,257.325256 377.298035,257.325256 405.941376,257.325256 
	C405.941376,263.905243 405.941376,270.495758 405.857635,277.547943 
z"/>
<path fill="#BDC3C6" opacity="1.000000" stroke="none" 
	d="
M352.213196,235.018631 
	C352.946320,235.085587 353.392670,235.160873 353.838989,235.236176 
	C353.848236,235.396866 353.857452,235.557556 353.866699,235.718246 
	C352.980682,235.718246 352.094604,235.722382 351.208954,235.704269 
	C351.170288,235.703476 351.089722,235.410339 351.106323,235.401672 
	C351.372223,235.262482 351.650757,235.147476 352.213196,235.018631 
z"/>
<path fill="#BDC3C6" opacity="1.000000" stroke="none" 
	d="
M376.055939,225.145126 
	C375.869873,225.790787 375.297974,226.441711 374.425842,227.229553 
	C374.640472,226.627792 375.155304,225.889099 376.055939,225.145126 
z"/>
<path fill="#BDC3C6" opacity="1.000000" stroke="none" 
	d="
M384.512329,207.360809 
	C384.663330,207.994568 384.606323,208.893616 384.332458,210.066391 
	C384.178558,209.435440 384.241455,208.530762 384.512329,207.360809 
z"/>
<path fill="#BDC3C6" opacity="1.000000" stroke="none" 
	d="
M368.902039,231.096832 
	C368.986603,231.320969 368.785370,231.538330 368.284393,231.714615 
	C368.211823,231.485046 368.422333,231.290543 368.902039,231.096832 
z"/>
<path fill="#BDC3C6" opacity="1.000000" stroke="none" 
	d="
M370.724640,230.068207 
	C370.836090,230.258377 370.693176,230.471176 370.264008,230.651917 
	C370.191132,230.465302 370.355286,230.288971 370.724640,230.068207 
z"/>
<path fill="#E74C3C" opacity="1.000000" stroke="none" 
	d="
M257.080566,108.421417 
	C271.200287,107.963821 285.264221,107.993118 299.327942,107.957275 
	C300.775574,107.953583 302.222260,107.561081 303.980469,107.023903 
	C304.506409,106.983269 304.721252,107.267731 305.059387,107.794800 
	C310.004578,127.576706 314.828766,147.115417 319.642242,166.656799 
	C319.918640,167.778931 320.107483,168.922638 319.904419,170.500198 
	C298.696411,170.956573 277.921051,170.969086 257.145660,170.981598 
	C257.105347,150.284317 257.065033,129.587021 257.080566,108.421417 
z"/>
<path fill="#E67038" opacity="1.000000" stroke="none" 
	d="
M257.078461,171.234955 
	C277.921051,170.969086 298.696411,170.956573 319.977539,170.906525 
	C320.760132,171.027985 320.915192,171.266251 320.913879,171.800690 
	C299.924774,172.013336 278.970184,172.009079 257.553467,172.005600 
	C257.064606,171.833679 257.037933,171.660980 257.078461,171.234955 
z"/>
</svg>